# xmcd
#
# Track frame offsets:
#	180
#	16528
#	31638
#	44086
#	56271
#	72155
#	84746
#	96820
#	113867
#	126211
#	141950
#
# Disc length: 2117 seconds
#
# Revision: 1
# Processed by: cddbd v1.5.1PL2 Copyright (c) Steve Scherf et al.
# Submitted via: audiograbber 1.83.01
#
DISCID=8b08430b
DTITLE=B. Jeff Stone - Texas Country
DYEAR=1900
DGENRE=Country
TTITLE0=The blizzard
TTITLE1=Hello Mr. Heartache
TTITLE2=Texas country boy
TTITLE3=Patricia's song
TTITLE4=Luckenbach, Texas
TTITLE5=Only Daddy that'll walk the line
TTITLE6=Right or wrong
TTITLE7=A good hearted woman
TTITLE8=The other side of town
TTITLE9=All my ex's live in Texas
TTITLE10=Starlet angel
EXTD=
EXTT0=
EXTT1=
EXTT2=
EXTT3=
EXTT4=
EXTT5=
EXTT6=
EXTT7=
EXTT8=
EXTT9=
EXTT10=
PLAYORDER=
